<svg width="214" height="109" viewBox="0 0 214 109" fill="none" xmlns="http://www.w3.org/2000/svg">
<g clip-path="url(#clip0_1_9)">
<path d="M120.249 73.3916C119.161 72.3021 118.264 71.3588 117.578 70.5871C117.047 70.0116 116.564 69.3933 116.134 68.7384C115.579 67.8234 115.3 66.7671 115.331 65.6968C115.331 64.3576 115.691 63.3261 116.439 62.5317C116.789 62.134 117.222 61.8191 117.708 61.6098C118.194 61.4004 118.72 61.3018 119.249 61.3211C120.34 61.3211 121.612 61.8255 123.028 62.8495L123.88 63.4598V57.2152L123.59 57.0639C121.95 56.1934 120.122 55.7379 118.266 55.7373C115.565 55.7373 113.375 56.6629 111.76 58.4838C110.145 60.3047 109.374 62.7032 109.374 65.717C109.374 67.9389 109.782 69.8153 110.591 71.2983C111.139 72.2257 111.778 73.096 112.498 73.896C113.333 74.8594 114.398 75.9817 115.661 77.2301C116.457 78.0271 117.13 78.7585 117.659 79.4066C118.103 79.9377 118.509 80.4999 118.873 81.0888C119.428 82.1213 119.708 83.2789 119.687 84.4507C119.687 85.8631 119.345 86.9728 118.679 87.7823C118.014 88.5919 117.105 88.9475 115.908 88.9475C114.58 88.9475 113.06 88.3271 111.39 87.109L110.536 86.486V92.7432L110.742 92.9046C112.332 94.1404 114.27 94.7659 116.507 94.7659C119.176 94.7659 121.398 93.7949 123.114 91.8731C124.83 89.9513 125.664 87.4318 125.664 84.4507C125.664 82.2692 125.273 80.3902 124.507 78.872C123.741 77.3537 122.31 75.4798 120.249 73.3916Z" fill="black"/>
<path d="M134.821 56.2363H128.766V94.3116H134.821V56.2363Z" fill="black"/>
<path d="M150.373 55.7373C146.414 55.7373 143.433 57.4599 141.513 60.852C139.649 64.1458 138.701 69.1999 138.701 75.8783C138.701 88.4154 142.66 94.7709 150.468 94.7709C151.965 94.7899 153.441 94.4197 154.752 93.6965L155.026 93.5427V87.8176L154.271 88.1531C153.197 88.6323 152.28 88.8744 151.544 88.8744C147.246 88.8744 145.066 84.4432 145.066 75.7043C145.046 73.523 145.176 71.343 145.457 69.1798C145.644 67.6425 146.045 66.1391 146.648 64.7132C147.152 63.5935 147.797 62.7612 148.558 62.2366C149.369 61.7019 150.324 61.4298 151.295 61.4573C152.068 61.4573 153.059 61.7524 154.265 62.3375L155.039 62.7133V57.0538L154.757 56.9C153.416 56.1499 151.908 55.7501 150.373 55.7373Z" fill="black"/>
<path d="M164.198 56.2363H158.144V94.3116H164.198V56.2363Z" fill="black"/>
<path d="M174.874 56.2363H168.819V94.3116H183.013V89.0178H174.874V56.2363Z" fill="black"/>
<path d="M191.107 56.2363H185.052V94.3116H191.107V56.2363Z" fill="black"/>
<path d="M205.847 56.2417H201.1L192.822 94.3245H198.718L200.132 87.1115H206.572L207.961 94.3245H214.008L205.847 56.2417ZM203.39 68.5997C203.758 71.4899 204.186 74.2718 204.667 76.9224L205.65 82.1809H201.034L201.83 78.0573C202.304 75.5176 202.725 73.0738 203.078 70.7913C203.183 70.06 203.289 69.326 203.39 68.5997Z" fill="black"/>
<path d="M126.632 31.0516C127.559 29.3719 128.028 27.1374 128.028 24.406C128.028 20.8222 127.131 18.1009 125.352 16.3355C123.931 14.9458 121.766 14.2422 118.921 14.2422H111.823V52.325H117.871V33.0389L123.744 52.3073H129.945L123.076 34.1335C124.588 33.6266 125.783 32.5925 126.632 31.0516ZM122.096 25.2912C122.096 27.271 121.741 28.6733 121.035 29.4627C120.421 30.1537 119.36 30.5396 117.881 30.6127V19.4199H118.175C118.795 19.4039 119.412 19.5119 119.99 19.7377C120.457 19.9335 120.86 20.259 121.149 20.6759C121.5 21.2128 121.74 21.8149 121.854 22.4464C122.027 23.3845 122.108 24.3374 122.094 25.2912H122.096Z" fill="black"/>
<path d="M138.54 14.2344H132.485V52.3096H138.54V14.2344Z" fill="black"/>
<path d="M170.16 15.9443L177.729 22.3453L177.679 14.2344H164.107V52.3096H170.16V35.4372H177.679V30.1459H170.16V15.9443Z" fill="black"/>
<path d="M186.021 14.2344L177.744 52.3172H183.64L185.051 45.1067H191.499L192.888 52.3172H198.935L190.781 14.2344H186.021ZM188.309 26.5924C188.677 29.4826 189.106 32.2644 189.589 34.9025L190.572 40.1635H185.956L186.742 36.0651C187.218 33.5255 187.637 31.0816 188.002 28.7992C188.106 28.0594 188.209 27.3238 188.309 26.5924Z" fill="black"/>
<path d="M206.696 14.2344H200.641V52.3096H206.696V14.2344Z" fill="black"/>
<path d="M151.323 39.0211C154.437 39.0211 156.962 36.494 156.962 33.3767C156.962 30.2595 154.437 27.7324 151.323 27.7324C148.208 27.7324 145.684 30.2595 145.684 33.3767C145.684 36.494 148.208 39.0211 151.323 39.0211Z" fill="black"/>
<path d="M67.8811 89.1946L60.4983 109H58.2305L59.2712 103.838L57.0966 92.7683L27.0918 71.2805L34.976 59.6993C32.5562 56.8689 30.7186 53.588 29.5687 50.045L41.7793 49.707L45.0549 49.6162L39.8567 64.2264L52.158 54.7687L53.7278 60.0953L56.5423 69.6513C52.3743 69.6573 48.2567 68.7391 44.4854 66.9628L42.8703 68.1633L61.7682 87.4115L66.1374 87.4493L67.8811 89.1946Z" fill="black"/>
<path d="M39.8682 64.2281L39.8643 64.23L39.8662 64.2261L39.8682 64.2281Z" fill="black"/>
<path d="M68.7886 32.9176L68.0176 32.9378L68.1108 32.6855L68.7886 32.9176Z" fill="black"/>
<path d="M83.5376 50.0455H83.5039C83.5054 50.0395 83.5054 50.0333 83.5039 50.0273L83.5376 50.0455Z" fill="black"/>
<path d="M42.3567 41.2781L29.5691 50.0346C27.7322 44.3408 27.7322 38.2128 29.5691 32.519L42.3567 41.2781Z" fill="black"/>
<path d="M45.0652 32.9377L42.6865 32.8722L29.584 32.509C31.4377 26.815 35.041 21.8526 39.8796 18.3301L42.8302 26.6225L45.0652 32.9377Z" fill="black"/>
<path d="M56.5451 12.9053L55.5372 16.31L52.1582 27.7853L42.9386 20.6807L39.8696 18.3201C40.8761 17.5856 41.93 16.9183 43.0243 16.3226C43.0377 15.6837 43.0503 15.0389 43.062 14.3882L16.2925 17.5736L13.5889 21.0111L11.1347 21.3339L0 3.37197L1.38585 1.5788L4.82779 5.56109L14.9067 10.6052L50.2433 0L54.4613 12.9809C55.1466 12.9305 55.8387 12.9053 56.5375 12.9053H56.5451Z" fill="black"/>
<path d="M73.2129 64.2211C68.3736 67.756 62.5359 69.6578 56.5449 69.651L60.9292 54.771L73.2129 64.2211Z" fill="black"/>
<path d="M73.2129 18.3327L60.9292 27.7853L56.5449 12.9053C62.5356 12.8978 68.3733 14.7987 73.2129 18.3327Z" fill="black"/>
<path d="M83.5033 50.045C83.4454 50.224 83.3849 50.4031 83.3244 50.5822C81.4227 56.051 77.8974 60.808 73.2203 64.2163L68.322 50.4535L68.0322 49.6162L83.5033 50.045Z" fill="black"/>
<path d="M83.5038 32.5093L68.7886 32.9179L68.0176 32.9381L68.1108 32.6859L73.2132 18.3506C78.0469 21.8683 81.6482 26.8232 83.5038 32.5093Z" fill="black"/>
<path d="M112.067 3.83074L107.204 5.83324L99.2193 13.7978L98.0577 50.7079L83.3249 50.5818C83.3853 50.4027 83.4458 50.2236 83.5038 50.0446H83.5365L83.5088 50.0269L70.7363 41.278L78.0838 36.2339L83.5088 32.5341C84.1537 34.5154 84.5763 36.5625 84.7687 38.6374L86.7063 39.3284L92.1842 12.9025L89.7854 9.24556L90.2566 6.80927L110.81 1.94678L112.067 3.83074Z" fill="black"/>
<path d="M29.5706 50.0445H29.5537H29.5682C29.5682 50.0445 29.5682 50.0421 29.5706 50.0445Z" fill="black"/>
<path d="M39.8682 64.2281L39.8643 64.23L39.8662 64.2261L39.8682 64.2281Z" fill="black"/>
<path d="M39.8679 18.3264L39.8661 18.3282L39.8643 18.3228L39.8679 18.3264Z" fill="black"/>
<path d="M83.5376 50.0455H83.5039C83.5054 50.0395 83.5054 50.0333 83.5039 50.0273L83.5376 50.0455Z" fill="black"/>
<path d="M83.5362 32.5093L83.5088 32.5268C83.5099 32.521 83.5099 32.5151 83.5088 32.5093H83.5362Z" fill="black"/>
<path d="M65.5962 31.7779C63.4067 29.6808 60.5608 28.4047 57.5397 28.1655C54.5187 27.9263 51.5077 28.7387 49.016 30.4652C46.5243 32.1917 44.7047 34.7265 43.8648 37.641C43.0249 40.5555 43.2163 43.6709 44.4066 46.4604C45.5969 49.25 47.7131 51.5425 50.3974 52.9505C53.0817 54.3584 56.1694 54.7954 59.1384 54.1876C62.1074 53.5797 64.7757 51.9642 66.692 49.6144C68.6083 47.2645 69.6552 44.3244 69.6555 41.2911C69.6578 39.5129 69.2991 37.7528 68.6013 36.1175C67.9036 34.4822 66.8812 33.0059 65.5962 31.7779ZM48.5579 45.112C47.8966 45.1115 47.2503 44.9148 46.7006 44.547C46.1508 44.1791 45.7223 43.6564 45.4692 43.045C45.216 42.4335 45.1495 41.7607 45.2781 41.1114C45.4067 40.4622 45.7246 39.8656 46.1916 39.3971C46.6587 38.9285 47.254 38.609 47.9024 38.4788C48.5507 38.3487 49.2231 38.4137 49.8345 38.6657C50.446 38.9177 50.9692 39.3455 51.3379 39.8949C51.7067 40.4443 51.9046 41.0907 51.9066 41.7526C51.9066 42.1925 51.8199 42.6281 51.6516 43.0345C51.4832 43.4409 51.2365 43.81 50.9255 44.1209C50.6144 44.4317 50.2453 44.6781 49.839 44.846C49.4327 45.0139 48.9974 45.1 48.5579 45.0993V45.112ZM60.0201 49.18H52.9875V47.1044H60.0201V49.18ZM60.1058 37.909C59.8534 37.8962 59.6156 37.7869 59.4415 37.6036C59.2674 37.4203 59.1704 37.1771 59.1704 36.9242C59.1704 36.6712 59.2674 36.428 59.4415 36.2447C59.6156 36.0614 59.8534 35.9521 60.1058 35.9393H57.5407V43.5382H59.1508C59.1509 43.8576 59.0397 44.1671 58.8363 44.4133C58.6329 44.6594 58.3501 44.8268 58.0365 44.8866C57.723 44.9464 57.3985 44.8948 57.1189 44.7407C56.8394 44.5866 56.6223 44.3397 56.5051 44.0426C56.389 44.3414 56.172 44.5901 55.8918 44.7454C55.6117 44.9008 55.286 44.953 54.9713 44.8931C54.6567 44.8332 54.3729 44.6649 54.1693 44.4173C53.9658 44.1698 53.8552 43.8588 53.8569 43.5382H55.467V35.9292H52.8868C53.0817 35.9292 53.2723 35.9871 53.4344 36.0956C53.5964 36.204 53.7227 36.3582 53.7972 36.5385C53.8717 36.7189 53.8911 36.9173 53.8529 37.1086C53.8146 37.3 53.7206 37.4757 53.5825 37.6135C53.4445 37.7513 53.2687 37.845 53.0774 37.8828C52.8861 37.9206 52.688 37.9007 52.508 37.8257C52.328 37.7506 52.1743 37.6238 52.0664 37.4613C51.9584 37.2989 51.9011 37.1079 51.9016 36.9128C51.9016 36.7834 51.9271 36.6553 51.9766 36.5358C52.0261 36.4163 52.0987 36.3078 52.1903 36.2164C52.2818 36.125 52.3904 36.0526 52.5099 36.0034C52.6294 35.9541 52.7575 35.9289 52.8868 35.9292H50.3368C50.3368 35.2483 50.6071 34.5952 51.0881 34.1138C51.5691 33.6323 52.2216 33.3618 52.9019 33.3618C53.5822 33.3618 54.2346 33.6323 54.7157 34.1138C55.1967 34.5952 55.467 35.2483 55.467 35.9292H57.5407C57.5299 35.5851 57.5883 35.2424 57.7124 34.9213C57.8366 34.6002 58.0239 34.3074 58.2632 34.0602C58.5026 33.8129 58.7892 33.6164 59.1059 33.4822C59.4226 33.3479 59.7631 33.2788 60.107 33.2788C60.451 33.2788 60.7914 33.3479 61.1082 33.4822C61.4249 33.6164 61.7114 33.8129 61.9508 34.0602C62.1902 34.3074 62.3775 34.6002 62.5016 34.9213C62.6257 35.2424 62.6841 35.5851 62.6734 35.9292H60.1058C60.2392 35.9225 60.3726 35.9429 60.4978 35.9894C60.6231 36.0358 60.7376 36.1073 60.8344 36.1994C60.9312 36.2915 61.0083 36.4023 61.061 36.5252C61.1136 36.6481 61.1408 36.7804 61.1408 36.9141C61.1408 37.0478 61.1136 37.1801 61.061 37.3029C61.0083 37.4258 60.9312 37.5366 60.8344 37.6288C60.7376 37.7209 60.6231 37.7923 60.4978 37.8388C60.3726 37.8852 60.2392 37.9057 60.1058 37.8989V37.909ZM64.863 44.8295C64.257 44.8295 63.6646 44.6496 63.1607 44.3126C62.6569 43.9757 62.2642 43.4967 62.0323 42.9363C61.8003 42.3759 61.7397 41.7593 61.8579 41.1644C61.9761 40.5695 62.2679 40.023 62.6964 39.5941C63.1249 39.1652 63.6709 38.8731 64.2652 38.7548C64.8596 38.6365 65.4757 38.6972 66.0355 38.9293C66.5954 39.1614 67.0739 39.5545 67.4106 40.0589C67.7473 40.5632 67.927 41.1561 67.927 41.7627C67.9236 42.5741 67.5995 43.3512 67.0253 43.924C66.4511 44.4968 65.6737 44.8187 64.863 44.8194V44.8295Z" fill="black"/>
</g>
<defs>
<clipPath id="clip0_1_9">
<rect width="214" height="109" fill="white"/>
</clipPath>
</defs>
</svg>
